<?xml version="1.0" standalone="no"?>
<!DOCTYPE svg PUBLIC "-//W3C//DTD SVG 20010904//EN"
 "http://www.w3.org/TR/2001/REC-SVG-20010904/DTD/svg10.dtd">
<svg version="1.0" xmlns="http://www.w3.org/2000/svg"
 width="432.000000pt" height="399.000000pt" viewBox="0 0 432.000000 399.000000"
 preserveAspectRatio="xMidYMid meet">
<g transform="translate(0.000000,399.000000) scale(0.100000,-0.100000)"
fill="#000000" stroke="none">
<path d="M1802 2998 c-7 -7 -12 -20 -12 -29 0 -10 -16 -38 -35 -63 -19 -26
-35 -48 -35 -51 0 -3 11 -10 25 -15 18 -7 25 -17 25 -37 0 -16 3 -37 6 -48 3
-13 -1 -23 -14 -30 -35 -18 -121 -90 -121 -101 -1 -21 29 -24 72 -6 59 24 85
42 70 48 -10 4 -10 10 0 25 17 27 27 24 27 -10 0 -17 5 -33 10 -36 19 -12 10
-30 -26 -53 -32 -21 -35 -26 -29 -54 10 -41 -4 -48 -102 -48 -72 0 -127 -12
-143 -30 -3 -3 -21 -17 -40 -30 -45 -31 -60 -46 -60 -59 0 -14 2 -14 85 6 86
20 104 32 79 50 -16 12 -16 13 7 13 13 0 56 7 94 16 39 8 75 16 80 17 22 5 35
19 35 40 1 19 5 17 37 -18 38 -40 113 -85 146 -85 20 0 -46 68 -98 100 -18 11
-35 30 -39 43 -17 64 4 74 56 27 20 -18 43 -30 60 -30 48 0 33 25 -50 84 -55
40 -72 62 -72 94 0 11 -7 22 -15 26 -8 3 -15 18 -15 32 0 15 -5 42 -12 60 -9
26 -9 36 2 48 18 23 43 1 35 -32 -10 -39 5 -112 23 -112 8 0 30 -11 48 -25 31
-24 54 -32 54 -19 0 23 -71 104 -92 104 -20 0 -6 37 19 46 l26 9 -27 32 c-14
17 -32 48 -40 69 -14 42 -26 50 -44 32z"/>
<path d="M2066 2511 c-3 -4 -19 -11 -36 -14 -24 -5 -30 -12 -30 -32 0 -25 2
-26 44 -22 37 4 43 2 39 -12 -3 -12 7 -19 36 -28 89 -28 126 -1 52 37 -22 10
-47 30 -58 43 -23 29 -40 40 -47 28z"/>
<path d="M1830 2414 c0 -10 5 -26 10 -34 8 -11 9 -7 4 15 -8 37 -14 45 -14 19z"/>
<path d="M1760 2410 c0 -5 6 -10 14 -10 8 0 18 5 21 10 3 6 -3 10 -14 10 -12
0 -21 -4 -21 -10z"/>
<path d="M1776 2375 c4 -8 1 -15 -5 -15 -6 0 -11 -7 -11 -15 0 -16 25 -21 34
-7 7 12 -4 52 -15 52 -5 0 -6 -7 -3 -15z"/>
<path d="M1613 2365 c-7 -8 -13 -18 -13 -23 0 -5 -11 -14 -24 -20 -14 -6 -33
-24 -43 -39 -26 -41 -38 -51 -65 -58 -13 -3 -44 -22 -68 -40 -25 -19 -49 -38
-55 -42 -5 -5 -22 -14 -37 -22 -16 -8 -28 -17 -28 -21 0 -4 -18 -15 -40 -25
-27 -12 -40 -24 -40 -38 0 -16 4 -18 28 -12 25 7 134 14 224 15 21 0 43 6 50
13 9 10 22 12 52 5 69 -16 91 13 35 45 -20 11 -29 22 -25 32 3 8 2 15 -3 15
-5 0 -12 -11 -15 -24 -3 -13 -18 -28 -33 -34 -24 -9 -119 -17 -160 -13 -21 2
-14 17 14 32 88 45 233 163 233 189 0 6 4 10 8 10 9 0 32 44 32 60 0 14 -13
12 -27 -5z"/>
<path d="M2025 2370 c-9 -15 11 -37 41 -43 29 -5 36 3 21 24 -16 21 -54 33
-62 19z"/>
<path d="M1839 2345 c-1 -5 -2 -14 -4 -20 -1 -5 -3 -18 -3 -28 -1 -9 -17 -24
-35 -33 -26 -12 -33 -21 -30 -38 2 -11 0 -41 -5 -66 -4 -26 -4 -60 2 -82 6
-21 7 -41 3 -44 -12 -12 -51 15 -69 46 -9 17 -22 30 -28 30 -18 0 -11 -26 14
-51 41 -42 75 -104 65 -120 -5 -8 -9 -53 -9 -101 l0 -88 35 0 c29 0 35 -4 35
-21 0 -13 -11 -25 -35 -35 -41 -17 -46 -45 -15 -84 11 -14 20 -33 20 -43 0
-10 5 -15 10 -12 6 3 10 33 10 66 0 58 1 59 28 59 52 0 58 11 43 81 -9 44 -9
65 -2 72 6 6 11 26 11 44 0 27 -4 33 -21 33 -11 0 -26 -6 -33 -13 -14 -13 -17
-79 -3 -70 4 2 7 -1 7 -6 0 -6 -4 -11 -10 -11 -5 0 -10 -7 -10 -15 0 -8 -4
-15 -10 -15 -14 0 -12 120 3 149 7 15 28 29 55 37 37 11 93 48 157 107 19 17
20 17 46 -15 26 -31 28 -32 99 -30 40 2 97 -2 127 -8 62 -13 90 -2 63 24 -17
16 -146 56 -198 62 -29 3 -32 1 -22 -12 22 -25 1 -28 -44 -6 -56 28 -99 28
-126 0 -11 -12 -20 -24 -20 -28 0 -9 -57 -41 -81 -45 -19 -4 -20 -1 -13 23 4
15 8 41 8 57 1 26 5 30 34 33 18 2 32 -1 32 -7 0 -6 9 -11 20 -11 25 0 26 18
1 28 -17 6 -13 14 35 67 49 54 56 58 67 43 16 -20 67 -35 67 -19 0 18 25 13
45 -9 16 -18 16 -20 2 -20 -27 0 -19 -19 11 -26 15 -3 40 -10 56 -15 76 -24
89 4 24 49 -24 17 -58 44 -77 62 l-33 32 -25 -26 c-29 -32 -33 -32 -67 -1 -15
14 -31 25 -35 25 -13 0 -21 -28 -14 -45 3 -9 2 -15 -3 -14 -22 4 -35 -4 -74
-42 -22 -22 -46 -39 -53 -36 -16 5 -21 95 -6 113 6 8 28 14 48 14 44 0 70 15
56 29 -7 7 -22 8 -41 2 -31 -9 -61 1 -76 23 -5 7 -8 7 -9 1z m-29 -155 c0 -16
7 -33 16 -38 14 -8 14 -10 -1 -26 -10 -9 -19 -16 -20 -14 -1 2 -6 29 -10 62
-5 41 -3 56 4 52 6 -4 11 -20 11 -36z m11 -166 c5 -6 2 -20 -8 -33 -23 -33
-35 -7 -20 42 8 25 13 32 16 20 2 -10 7 -23 12 -29z"/>
<path d="M1636 2211 c-4 -5 -20 -12 -36 -16 -32 -7 -37 -14 -19 -32 8 -8 19
-9 38 -1 14 6 42 14 61 17 48 9 47 35 -2 39 -20 2 -39 -1 -42 -7z"/>
<path d="M1501 1990 c-10 -6 -13 -23 -9 -62 6 -61 2 -78 -18 -78 -8 0 -14 -6
-14 -12 0 -12 -118 -15 -337 -8 -72 3 -67 30 5 30 33 0 98 22 114 38 7 7 22
12 34 12 13 0 26 5 29 10 14 23 91 -2 101 -32 3 -10 14 -18 24 -18 16 0 17 4
7 38 -6 20 -15 43 -20 50 -11 15 -137 17 -137 2 0 -5 -6 -10 -13 -10 -21 0
-97 -39 -97 -50 0 -6 -11 -10 -25 -10 -14 0 -25 5 -25 10 0 21 -46 9 -77 -20
-18 -17 -37 -30 -42 -30 -6 0 -11 -4 -11 -10 0 -5 -6 -10 -13 -10 -16 0 -57
-37 -57 -52 0 -7 14 -8 43 -4 23 4 49 8 59 10 9 1 22 7 30 13 13 11 41 9 183
-12 27 -5 46 -2 59 8 17 12 27 12 70 1 42 -11 54 -11 71 0 29 19 55 -9 55 -57
0 -44 -19 -48 -77 -17 -38 20 -83 27 -83 12 0 -4 8 -12 19 -17 10 -6 41 -22
69 -37 28 -16 63 -28 77 -28 14 0 25 -4 25 -8 0 -4 21 -18 46 -30 25 -12 51
-27 57 -32 7 -6 27 -23 46 -39 19 -16 36 -39 38 -52 2 -13 8 -28 13 -33 6 -6
10 -29 10 -52 0 -55 8 -74 31 -74 16 0 18 7 18 50 -1 28 1 53 4 57 11 11 39
-7 33 -22 -3 -9 8 -24 29 -41 34 -26 34 -26 15 -47 -12 -12 -18 -28 -14 -39 4
-13 0 -18 -15 -18 -12 0 -21 4 -21 9 0 12 -46 20 -61 11 -6 -5 -15 -29 -19
-55 -6 -39 -4 -51 11 -66 20 -20 25 -39 11 -39 -9 0 -32 -44 -32 -61 0 -14 43
-28 56 -18 7 6 10 41 7 100 l-4 91 25 -6 c27 -7 56 1 56 16 0 5 11 20 24 33
13 12 33 38 44 57 15 24 46 47 109 80 48 25 100 48 115 52 15 3 33 16 39 28
10 19 9 20 -12 14 -68 -18 -69 -18 -69 -3 0 9 5 19 11 22 6 5 8 31 3 75 -6 66
-6 69 26 109 39 48 34 60 -14 37 -37 -17 -51 -49 -40 -92 12 -48 -16 -131 -59
-175 -22 -21 -45 -39 -52 -39 -7 0 -32 -16 -55 -35 -23 -19 -45 -35 -49 -35
-4 0 -12 15 -19 33 -7 19 -24 40 -38 47 -19 11 -24 20 -21 37 5 28 -17 31 -32
6 -9 -16 -12 -16 -21 -3 -14 21 -12 28 8 33 15 4 15 5 -2 12 -11 5 -32 23 -47
40 -15 17 -49 41 -76 53 -103 49 -97 43 -104 102 -4 30 -4 98 -1 151 5 96 -1
116 -27 99z"/>
<path d="M2095 1941 c-22 -10 -46 -26 -54 -35 -7 -9 -19 -16 -26 -16 -25 0
-25 -30 -1 -40 14 -5 29 -17 34 -26 10 -19 15 -18 124 16 17 5 42 4 63 -3 27
-8 38 -8 48 2 9 10 7 16 -12 32 -13 10 -29 19 -37 19 -8 0 -14 5 -14 10 0 6
-5 10 -10 10 -6 0 -21 11 -34 25 -27 29 -28 29 -81 6z m69 -56 c4 -11 -1 -15
-17 -15 -12 0 -32 -3 -44 -6 -17 -5 -23 -2 -23 9 0 28 73 38 84 12z"/>
<path d="M1587 1852 c-10 -16 -17 -101 -10 -105 4 -2 29 -8 56 -11 57 -9 60 2
17 51 -16 18 -30 40 -30 47 0 15 -27 29 -33 18z"/>
<path d="M2346 1809 c-14 -21 -12 -48 5 -51 5 0 26 -2 47 -3 65 -4 137 -45 78
-45 -14 0 -26 -4 -26 -10 0 -5 5 -10 11 -10 5 0 7 -5 3 -12 -5 -8 6 -9 41 -5
26 4 61 7 76 7 37 0 39 27 4 36 -14 3 -25 10 -25 14 0 5 -8 11 -17 14 -10 3
-30 17 -45 31 -21 20 -33 23 -58 18 -25 -4 -34 -1 -46 16 -19 26 -29 27 -48 0z"/>
<path d="M1056 1734 c-9 -23 -9 -22 33 -43 l38 -20 34 29 c38 32 35 35 -48 44
-40 4 -53 2 -57 -10z"/>
<path d="M2219 1710 c-45 -39 -46 -41 -42 -88 5 -45 26 -77 45 -66 13 8 199
11 229 3 57 -15 59 22 3 64 -24 18 -25 18 -42 -3 -15 -19 -26 -21 -102 -18
-81 3 -85 4 -88 26 -5 34 62 91 97 83 9 -2 12 3 7 14 -3 9 -6 19 -6 21 0 2
-12 4 -27 4 -18 -1 -45 -15 -74 -40z"/>
<path d="M1223 1660 c-24 -32 -43 -61 -43 -64 0 -10 50 -7 72 5 11 6 46 12 76
13 66 1 76 16 29 45 -18 11 -42 29 -52 41 -10 11 -23 20 -29 19 -6 0 -30 -26
-53 -59z"/>
<path d="M1831 1641 c-8 -5 -11 -16 -8 -25 3 -8 1 -29 -5 -46 -13 -39 0 -55
36 -46 24 6 26 11 25 54 -2 63 -17 82 -48 63z"/>
<path d="M1983 1616 c-44 -44 -43 -60 3 -53 47 8 66 25 62 56 -4 37 -28 35
-65 -3z"/>
<path d="M2547 1614 c-20 -27 -22 -50 -4 -61 6 -4 62 -13 122 -19 61 -7 120
-16 133 -19 18 -6 22 -3 22 14 0 11 -4 21 -9 21 -5 0 -40 21 -78 46 -62 42
-71 45 -97 35 -16 -6 -34 -7 -40 -3 -21 12 -31 10 -49 -14z m113 -34 c11 -8 5
-10 -23 -8 -21 1 -41 6 -43 10 -7 12 48 10 66 -2z"/>
<path d="M1300 1506 c0 -20 9 -27 52 -41 29 -9 64 -25 78 -35 25 -17 26 -17
58 9 44 37 42 57 -8 65 -22 3 -40 11 -40 16 0 6 -31 10 -70 10 -67 0 -70 -1
-70 -24z"/>
<path d="M2394 1489 c-4 -6 -20 -9 -38 -6 -28 4 -34 1 -44 -23 -7 -16 -43 -68
-80 -116 -54 -70 -76 -91 -107 -102 -119 -41 -153 -58 -195 -101 -25 -25 -44
-47 -42 -48 1 -2 2 -4 1 -5 0 -2 -1 -21 -3 -43 -1 -22 -15 -68 -31 -103 -15
-34 -25 -65 -21 -69 3 -3 6 -1 6 5 0 6 6 9 13 6 7 -2 26 9 41 25 21 22 27 36
22 54 -4 17 1 32 14 47 11 13 20 31 20 42 0 10 5 18 10 18 6 0 30 20 54 46 31
32 62 52 107 68 161 60 207 78 242 102 35 23 42 44 14 44 -7 0 -33 -11 -59
-25 -26 -14 -52 -25 -58 -25 -29 0 9 55 109 159 28 29 51 55 51 57 0 9 -19 3
-26 -7z"/>
<path d="M2449 1450 c-28 -27 -55 -50 -60 -50 -5 0 -9 -6 -9 -13 0 -11 31 -13
156 -11 110 1 173 -2 211 -12 67 -17 73 -17 73 1 0 15 -77 65 -99 65 -7 0 -25
9 -40 19 -15 11 -49 21 -81 23 -30 2 -65 9 -77 16 -20 11 -27 7 -74 -38z m176
-21 c11 -1 -11 -5 -50 -8 -84 -7 -105 -3 -82 14 11 8 32 9 64 4 27 -4 57 -9
68 -10z"/>
<path d="M3102 1426 c-17 -29 -37 -59 -44 -67 -23 -24 -178 -246 -178 -255 0
-2 -10 -15 -22 -29 -19 -22 -94 -52 -156 -62 -22 -4 -47 -24 -67 -55 -40 -61
-100 -144 -107 -146 -4 -2 -8 -8 -8 -13 0 -5 -26 -44 -57 -87 -32 -44 -65 -89
-73 -101 -8 -13 -26 -37 -38 -54 -13 -18 -39 -54 -58 -82 -18 -27 -49 -72 -69
-100 -19 -27 -40 -58 -47 -69 -7 -10 -17 -24 -23 -30 -18 -20 -55 -75 -55 -80
0 -3 -7 -14 -14 -23 -37 -45 -96 -128 -96 -135 0 -5 154 -8 343 -8 285 -1 345
-3 361 -15 11 -8 26 -15 33 -15 18 0 -1 47 -30 71 -20 17 -39 18 -272 15 -137
-2 -262 -7 -277 -11 -24 -6 -28 -4 -28 13 0 11 13 31 28 44 24 20 87 103 127
166 6 9 35 50 65 92 30 42 60 83 65 92 16 25 97 140 111 157 38 46 184 257
184 266 1 19 45 43 109 59 35 9 69 20 77 24 15 8 194 277 194 291 0 5 7 14 15
21 9 7 13 20 10 28 -7 18 20 62 38 62 6 -1 28 -27 48 -58 20 -31 171 -259 335
-507 165 -247 301 -454 303 -460 2 -5 11 -17 21 -27 15 -16 60 -94 60 -104 0
-2 -57 59 -127 137 -71 78 -146 162 -168 186 -26 28 -51 46 -70 49 -23 3 -26
2 -13 -6 9 -6 39 -41 66 -78 27 -37 65 -83 83 -102 19 -20 63 -69 99 -110 36
-41 90 -101 120 -133 30 -32 59 -68 64 -80 14 -32 15 -32 30 -11 14 18 15 18
22 1 10 -27 0 -30 -68 -19 -35 6 -139 14 -233 16 -93 3 -180 9 -191 12 -41 11
-42 -30 -2 -55 16 -10 69 -12 232 -10 300 4 308 4 321 -15 7 -9 17 -16 24 -16
22 0 10 45 -19 74 -16 16 -33 38 -36 50 -4 12 -10 23 -14 26 -4 3 -99 142
-211 310 -112 168 -207 307 -211 308 -5 2 -8 10 -8 19 0 8 -6 21 -12 28 -22
24 -30 36 -130 187 -54 81 -98 151 -98 156 0 6 -3 12 -7 14 -9 4 -113 155
-113 164 0 3 -14 23 -30 44 -17 21 -35 52 -41 69 -6 17 -17 31 -24 31 -7 0
-27 -24 -43 -54z m-998 -1365 c-2 -2 -11 -1 -20 3 -14 5 -14 9 -3 22 12 14 14
14 20 -3 3 -10 5 -20 3 -22z"/>
<path d="M1097 1404 c-16 -19 -34 -34 -41 -34 -14 0 -56 -37 -56 -49 0 -4 64
-6 143 -4 106 3 156 1 197 -11 59 -16 79 -9 60 21 -12 18 -86 54 -125 60 -10
2 -28 12 -40 22 -12 12 -34 19 -57 19 -20 0 -40 2 -45 5 -4 2 -21 -11 -36 -29z
m118 -34 c7 -11 6 -11 -44 -13 -20 -1 -36 3 -38 11 -6 15 73 17 82 2z"/>
<path d="M1533 1369 c-34 -34 -4 -79 51 -79 34 0 33 13 -6 56 -27 28 -35 33
-45 23z"/>
<path d="M1460 1365 c-5 -20 -9 -82 -9 -138 0 -63 -17 -82 -49 -55 -9 9 -47
32 -83 52 -63 35 -99 45 -99 28 0 -10 81 -70 135 -101 49 -28 85 -57 177 -143
40 -38 80 -70 90 -74 9 -3 33 -32 53 -65 20 -32 42 -65 48 -72 7 -7 17 -22 23
-32 13 -23 42 -31 56 -17 7 7 -3 26 -31 59 -22 27 -41 54 -41 60 0 6 -7 16
-15 23 -24 20 -17 32 15 25 17 -4 30 -2 30 3 0 14 -101 104 -131 118 -13 6
-45 21 -71 32 -63 28 -84 60 -68 105 11 36 5 133 -10 152 -4 5 -10 19 -13 30
-2 11 -6 16 -7 10z"/>
<path d="M2485 1306 c-48 -15 -85 -44 -85 -67 0 -14 6 -15 52 -4 28 6 54 17
56 23 7 21 42 13 75 -18 27 -25 37 -29 67 -24 19 4 37 8 39 10 10 8 -11 35
-35 44 -14 6 -38 19 -52 30 -28 23 -59 24 -117 6z"/>
<path d="M3151 1283 c0 -6 -7 -18 -13 -25 -34 -35 -69 -123 -95 -235 -5 -22
-66 -76 -247 -221 -50 -40 -104 -85 -121 -99 -30 -27 -30 -27 -7 -31 26 -4
182 85 182 105 0 6 24 31 52 55 167 138 167 137 216 293 24 74 41 143 39 152
-3 10 -5 13 -6 6z"/>
<path d="M950 1235 c-7 -9 -27 -22 -45 -31 -39 -18 -42 -51 -4 -46 82 12 257
12 296 2 53 -16 61 -10 29 21 -64 63 -79 69 -174 69 -68 0 -93 -4 -102 -15z"/>
<path d="M1820 1170 l-25 -19 21 -21 20 -20 22 23 c14 15 20 30 16 40 -8 22
-23 21 -54 -3z"/>
<path d="M1076 1091 c-11 -12 -27 -21 -38 -21 -10 0 -26 -4 -36 -9 -42 -21
-99 -44 -121 -48 -27 -5 -32 -10 -109 -133 -30 -47 -57 -87 -61 -90 -4 -3 -44
-63 -90 -135 -46 -71 -93 -142 -105 -157 -11 -14 -34 -49 -51 -77 -16 -28 -33
-51 -37 -51 -5 0 -8 -4 -8 -10 0 -8 -57 -97 -70 -110 -3 -3 -30 -43 -59 -90
-30 -47 -62 -91 -72 -98 -23 -16 -26 -62 -4 -62 8 0 15 4 15 9 0 19 43 22 292
21 253 0 257 0 278 22 25 27 21 44 -11 41 -13 -2 -103 -5 -199 -7 -96 -3 -197
-7 -225 -10 -27 -3 -44 -3 -37 0 6 3 12 11 12 18 0 7 10 21 21 32 12 10 106
147 210 304 105 157 193 290 197 296 4 5 12 19 19 30 86 141 108 172 134 187
17 9 35 17 41 17 5 0 21 9 35 20 14 11 34 20 43 20 10 0 20 9 23 20 3 11 12
20 20 20 22 0 140 -138 133 -156 -3 -8 -10 -12 -16 -9 -15 9 -69 -33 -76 -60
-7 -27 -34 -41 -45 -24 -11 18 -54 3 -94 -32 -19 -17 -35 -26 -35 -20 0 6 4
11 8 11 5 0 16 16 25 36 10 19 35 59 56 87 39 53 62 117 42 117 -6 0 -11 -4
-11 -9 0 -5 -18 -28 -40 -52 -22 -24 -43 -52 -46 -61 -3 -10 -9 -18 -14 -18
-4 0 -10 -8 -14 -17 -6 -19 -16 -34 -78 -126 -21 -31 -38 -58 -38 -62 0 -3 -4
-11 -10 -18 -51 -63 -130 -168 -139 -186 -11 -20 -10 -22 7 -19 11 2 91 77
178 168 88 91 167 168 176 172 20 8 38 -17 38 -50 0 -11 9 -30 19 -43 l19 -24
11 25 c5 14 13 55 16 92 8 83 24 100 65 70 16 -12 34 -22 40 -22 10 0 69 -38
80 -51 10 -12 68 -38 73 -33 10 11 -4 32 -57 86 -28 29 -67 71 -86 94 -19 23
-55 65 -80 94 -25 29 -56 66 -70 82 l-25 30 -19 -21z m-766 -1016 c0 -8 -7
-15 -16 -15 -14 0 -14 3 -4 15 7 8 14 15 16 15 2 0 4 -7 4 -15z"/>
<path d="M1769 1019 c-7 -4 -7 -13 2 -28 16 -24 39 -28 39 -7 0 8 2 21 5 28 6
14 -27 19 -46 7z"/>
<path d="M3250 874 c9 -3 30 -36 47 -73 17 -38 55 -107 85 -152 93 -144 98
-154 183 -320 5 -10 13 -19 17 -19 13 0 20 42 9 53 -6 6 -11 17 -11 25 0 32
-80 192 -97 192 -6 0 -15 9 -18 20 -3 11 -11 20 -16 20 -5 0 -9 5 -9 11 0 6
-10 25 -22 42 -30 41 -88 138 -88 145 0 16 -56 62 -74 61 -14 -1 -16 -3 -6 -5z"/>
<path d="M1857 826 c-3 -8 -2 -38 2 -67 3 -30 5 -62 3 -71 -4 -20 -22 -24 -37
-9 -14 14 -93 17 -106 4 -15 -15 7 -27 47 -25 18 2 37 -4 44 -13 13 -15 65
-20 94 -9 14 5 15 19 10 93 -4 47 -11 92 -17 99 -13 16 -34 15 -40 -2z"/>
<path d="M3194 814 c11 -44 46 -216 46 -226 0 -6 -20 7 -44 28 -64 57 -129 94
-165 94 -24 0 -50 -14 -103 -57 -38 -32 -86 -69 -107 -83 -20 -14 -40 -31 -44
-37 -4 -7 -12 -13 -18 -13 -10 0 27 62 78 129 18 24 33 53 33 65 0 17 -10 11
-55 -34 -30 -30 -54 -58 -55 -62 0 -12 -148 -206 -201 -264 -48 -53 -61 -84
-36 -84 6 0 37 24 67 53 70 66 95 87 200 167 47 35 87 67 90 70 3 3 21 17 40
30 19 13 48 39 64 57 16 18 35 33 42 33 8 0 50 -26 94 -57 60 -44 89 -74 124
-128 64 -100 89 -127 99 -110 5 9 -1 34 -14 62 -12 26 -24 66 -26 88 -3 22
-11 54 -19 72 -8 17 -14 44 -14 60 0 41 -52 173 -68 173 -10 0 -12 -7 -8 -26z"/>
<path d="M1723 618 c-6 -7 -10 -74 -9 -153 l1 -140 48 0 c59 0 70 12 28 28
-31 11 -31 12 -31 85 0 81 11 112 40 112 27 0 25 31 -3 51 -34 25 -63 31 -74
17z"/>
<path d="M1835 510 c-15 -17 -16 -20 -2 -25 9 -4 13 -14 10 -26 -4 -13 -1 -18
8 -15 8 2 26 7 42 10 23 6 27 11 27 41 0 33 -2 35 -33 35 -21 0 -41 -8 -52
-20z"/>
<path d="M1860 390 c-17 -14 -21 -22 -13 -27 6 -5 13 -16 15 -27 2 -13 -4 -20
-21 -23 -31 -4 -33 -7 -26 -26 7 -16 63 -31 87 -22 18 7 21 126 4 137 -15 11
-18 10 -46 -12z"/>
<path d="M1710 231 c0 -46 20 -81 46 -81 18 0 24 7 29 34 11 57 4 71 -38 74
-35 3 -37 2 -37 -27z"/>
<path d="M1833 203 c-13 -2 -23 -9 -23 -14 0 -9 3 -10 32 -13 7 0 16 -22 19
-48 4 -26 10 -52 14 -57 4 -7 -10 -11 -40 -11 -31 0 -47 5 -51 15 -11 27 -48
16 -86 -25 -21 -22 -38 -42 -38 -45 0 -11 42 -4 56 10 18 18 165 24 217 9 25
-8 21 18 -8 52 -14 16 -23 36 -20 44 2 8 7 32 11 53 6 37 6 37 -27 36 -19 -1
-44 -4 -56 -6z"/>
</g>
</svg>
